<svg id="Layer_1" data-name="Layer 1" xmlns="http://www.w3.org/2000/svg" viewBox="0 0 64 64"><title>Artboard 1 copy</title><path d="M32,47.8A15.8,15.8,0,1,1,47.8,32,15.8,15.8,0,0,1,32,47.8Zm0-28.7A12.9,12.9,0,1,0,44.9,32,12.9,12.9,0,0,0,32,19.1Z" style="fill:#454545"/><path d="M42.4,64H21.6A21.7,21.7,0,0,1,0,42.4V21.6A21.7,21.7,0,0,1,21.6,0H42.4A21.7,21.7,0,0,1,64,21.6V42.4A21.7,21.7,0,0,1,42.4,64ZM21.6,2.9A18.7,18.7,0,0,0,2.9,21.6V42.4A18.7,18.7,0,0,0,21.6,61.1H42.4A18.7,18.7,0,0,0,61.1,42.4V21.6A18.7,18.7,0,0,0,42.4,2.9Z" style="fill:#454545"/><path d="M49.3,20.1a5.4,5.4,0,1,1,5.4-5.4A5.4,5.4,0,0,1,49.3,20.1Zm0-7.8a2.5,2.5,0,1,0,2.5,2.5A2.5,2.5,0,0,0,49.3,12.3Z" style="fill:#454545"/></svg>