<svg id="Layer_1" data-name="Layer 1" xmlns="http://www.w3.org/2000/svg" viewBox="0 0 64 64"><title>Artboard 1 copy 3</title><path d="M64,12.2a26.2,26.2,0,0,1-7.5,2.1A13.2,13.2,0,0,0,62.2,7a26.5,26.5,0,0,1-8.3,3.2,13.1,13.1,0,0,0-22.4,12A37.3,37.3,0,0,1,4.5,8.4,13.1,13.1,0,0,0,8.5,25.9a13.1,13.1,0,0,1-5.9-1.6v.2A13.1,13.1,0,0,0,13.1,37.3a13.3,13.3,0,0,1-3.5.5l-2.5-.2a13.1,13.1,0,0,0,12.3,9.1A26.3,26.3,0,0,1,3.1,52.3L0,52.1A37.1,37.1,0,0,0,20.1,58c24.2,0,37.4-20,37.4-37.4V18.9A26.2,26.2,0,0,0,64,12.2Z" style="fill:#454545"/></svg>