<svg id="Layer_1" data-name="Layer 1" xmlns="http://www.w3.org/2000/svg" viewBox="0 0 64 64"><title>Artboard 1 copy 2</title><path d="M54.7,9.2A31.9,31.9,0,0,0,4.5,47.6L0,64.1l16.9-4.4a31.9,31.9,0,0,0,15.2,3.9h0A31.9,31.9,0,0,0,54.7,9.2m-22.5,49h0a26.5,26.5,0,0,1-13.5-3.7l-1-.6-10,2.6,2.7-9.8-.6-1A26.5,26.5,0,1,1,32.1,58.2M46.7,38.4l-5.4-2.6c-.7-.3-1.3-.4-1.8.4s-2.1,2.6-2.5,3.1-.9.6-1.7.2a21.7,21.7,0,0,1-6.4-4A24,24,0,0,1,24.4,30c-.5-.8,0-1.2.3-1.6L25.9,27a5.4,5.4,0,0,0,.8-1.3,1.5,1.5,0,0,0-.1-1.4l-2.5-5.9c-.6-1.6-1.3-1.3-1.8-1.4H20.9a2.9,2.9,0,0,0-2.1,1,8.9,8.9,0,0,0-2.8,6.6c0,3.9,2.9,7.7,3.3,8.2s5.6,8.6,13.6,12a45.9,45.9,0,0,0,4.5,1.7,10.9,10.9,0,0,0,5,.3c1.5-.2,4.7-1.9,5.4-3.8a6.7,6.7,0,0,0,.5-3.8c-.2-.3-.7-.5-1.5-.9" style="fill:#454545"/></svg>